<?xml version="1.0" encoding="UTF-8" standalone="no"?>
<!-- Created with Inkscape (http://www.inkscape.org/) -->

<svg
   xmlns:dc="http://purl.org/dc/elements/1.1/"
   xmlns:cc="http://creativecommons.org/ns#"
   xmlns:rdf="http://www.w3.org/1999/02/22-rdf-syntax-ns#"
   xmlns:svg="http://www.w3.org/2000/svg"
   xmlns="http://www.w3.org/2000/svg"
   xmlns:sodipodi="http://sodipodi.sourceforge.net/DTD/sodipodi-0.dtd"
   xmlns:inkscape="http://www.inkscape.org/namespaces/inkscape"
   width="120"
   height="37"
   id="svg3066"
   version="1.1"
   inkscape:version="0.48.4 r9939"
   sodipodi:docname="New document 3">
  <defs
     id="defs3068">
    <clipPath
       id="clipPath20">
      <path
         d="m 0,841.89 595.28,0 L 595.28,0 0,0 0,841.89 z"
         inkscape:connector-curvature="0"
         id="path22" />
    </clipPath>
  </defs>
  <sodipodi:namedview
     id="base"
     pagecolor="#ffffff"
     bordercolor="#666666"
     borderopacity="1.0"
     inkscape:pageopacity="0.0"
     inkscape:pageshadow="2"
     inkscape:zoom="6.7882251"
     inkscape:cx="78.567321"
     inkscape:cy="30"
     inkscape:document-units="px"
     inkscape:current-layer="layer1"
     showgrid="false"
     inkscape:showpageshadow="false"
     inkscape:window-width="1149"
     inkscape:window-height="786"
     inkscape:window-x="12"
     inkscape:window-y="100"
     inkscape:window-maximized="0" />
  <metadata
     id="metadata3071">
    <rdf:RDF>
      <cc:Work
         rdf:about="">
        <dc:format>image/svg+xml</dc:format>
        <dc:type
           rdf:resource="http://purl.org/dc/dcmitype/StillImage" />
        <dc:title></dc:title>
      </cc:Work>
    </rdf:RDF>
  </metadata>
  <g
     id="layer1"
     inkscape:label="Layer 1"
     inkscape:groupmode="layer"
     transform="translate(0,-23)">
    <text
       transform="scale(0.88992791,1.1236865)"
       id="text12"
       x="-0.13434365"
       y="49.798565"
       style="font-size:4.2282877px">
      <tspan
         x="-0.13434365"
         y="49.798565"
         id="tspan14"
         style="font-size:5.27799559px;font-variant:normal;font-weight:normal;font-stretch:normal;writing-mode:lr-tb;fill:#82cff5;fill-opacity:1;fill-rule:nonzero;stroke:none;font-family:Calibri;-inkscape-font-specification:Calibri">Cities that Care, Cities that Share</tspan>
    </text>
    <g
       transform="matrix(0.39705722,0,0,-0.39593912,-59.072415,208.38042)"
       id="g16">
      <g
         clip-path="url(#clipPath20)"
         id="g18">
        <g
           transform="translate(161.3838,410.0928)"
           id="g24">
          <path
             d="m 0,0 0.542,2.377 c 0.406,1.759 1.969,2.438 3.66,1.896 1.83,-0.544 5.628,-1.627 9.832,-1.627 3.525,0 5.624,2.1 5.624,5.153 0,8.202 -19.116,6.098 -19.116,21.081 0,7.934 6.847,12.882 15.459,12.882 4.066,0 7.592,-0.946 10.235,-1.831 1.763,-0.606 2.373,-2.236 1.83,-3.929 L 27.389,33.898 C 26.846,32.2 25.421,31.39 23.664,32.001 c -2.445,0.745 -4.681,1.289 -7.663,1.289 -3.866,0 -5.153,-1.97 -5.153,-4.271 0,-7.665 19.118,-5.29 19.118,-21.152 0,-9.154 -7.661,-13.694 -15.932,-13.694 -5.221,0 -9.628,1.149 -12.136,1.964 C 0.271,-3.319 -0.406,-1.828 0,0"
             inkscape:connector-curvature="0"
             id="path26"
             style="fill:#82cff5;fill-opacity:1;fill-rule:nonzero;stroke:none" />
        </g>
        <g
           transform="translate(197.1084,447.9229)"
           id="g28">
          <path
             d="m 0,0 c 0,1.829 1.219,3.053 3.052,3.053 l 3.862,0 C 8.742,3.053 9.966,1.829 9.966,0 l 0,-15.321 14.102,0 0,15.321 c 0,1.829 1.221,3.053 3.05,3.053 l 3.864,0 c 1.83,0 3.054,-1.224 3.054,-3.053 l 0,-39.728 c 0,-1.834 -1.224,-3.05 -3.054,-3.05 l -3.864,0 c -1.829,0 -3.05,1.216 -3.05,3.05 l 0,16.136 -14.102,0 0,-16.136 c 0,-1.834 -1.224,-3.05 -3.052,-3.05 l -3.862,0 C 1.219,-42.778 0,-41.562 0,-39.728 L 0,0 z"
             inkscape:connector-curvature="0"
             id="path30"
             style="fill:#82cff5;fill-opacity:1;fill-rule:nonzero;stroke:none" />
        </g>
        <g
           transform="translate(259.5459,424.2637)"
           id="g32">
          <path
             d="m 0,0 -2.373,8.678 c -0.609,2.102 -1.22,4.948 -1.764,7.797 C -4.676,13.626 -5.357,10.78 -5.9,8.678 L -8.271,0 0,0 z m -10.779,23.796 c 0.54,1.763 2.102,2.916 3.93,2.916 l 5.426,0 c 1.829,0 3.388,-1.153 3.931,-2.916 l 11.931,-39.729 c 0.544,-1.829 -0.337,-3.186 -2.168,-3.186 l -4.203,0 c -1.831,0 -3.049,0.883 -3.528,2.642 l -2.301,8.41 -12.748,0 -2.303,-8.338 c -0.479,-1.765 -1.629,-2.714 -3.46,-2.714 l -4.271,0 c -1.83,0 -2.712,1.357 -2.167,3.186 l 11.931,39.729 z"
             inkscape:connector-curvature="0"
             id="path34"
             style="fill:#82cff5;fill-opacity:1;fill-rule:nonzero;stroke:none" />
        </g>
        <g
           transform="translate(295.543,430.1631)"
           id="g36">
          <path
             d="m 0,0 c 3.187,0 5.492,2.438 5.492,6.166 0,3.662 -2.305,6.171 -5.492,6.171 l -5.897,0 L -5.897,0 0,0 z m -15.863,17.76 c 0,1.829 1.218,3.052 3.05,3.052 l 13.289,0 c 9.288,0 15.049,-6.916 15.049,-14.646 0,-5.556 -2.985,-10.371 -8.135,-12.678 l 6.845,-14.643 c 1.019,-2.104 -0.065,-3.864 -2.167,-3.864 l -4.407,0 c -1.831,0 -3.187,1.085 -3.933,2.78 l -6.236,14.305 -3.389,0 0,-14.034 c 0,-1.834 -1.222,-3.051 -3.053,-3.051 l -3.863,0 c -1.832,0 -3.05,1.217 -3.05,3.051 l 0,39.728 z"
             inkscape:connector-curvature="0"
             id="path38"
             style="fill:#82cff5;fill-opacity:1;fill-rule:nonzero;stroke:none" />
        </g>
        <g
           transform="translate(317.0312,447.9229)"
           id="g40">
          <path
             d="m 0,0 c 0,1.829 1.221,3.053 3.051,3.053 l 21.288,0 C 26.171,3.053 27.39,1.829 27.39,0 l 0,-2.372 c 0,-1.831 -1.219,-3.051 -3.051,-3.051 l -14.371,0 0,-10.17 11.589,0 c 1.834,0 2.985,-0.883 2.917,-2.778 l -0.135,-2.647 c -0.067,-1.828 -1.355,-2.712 -3.187,-2.712 l -11.184,0 0,-10.574 14.982,0 c 1.828,0 3.05,-1.22 3.05,-3.052 l 0,-2.372 c 0,-1.834 -1.222,-3.05 -3.05,-3.05 l -21.899,0 c -1.83,0 -3.051,1.216 -3.051,3.05 L 0,0 z"
             inkscape:connector-curvature="0"
             id="path42"
             style="fill:#82cff5;fill-opacity:1;fill-rule:nonzero;stroke:none" />
        </g>
        <g
           transform="translate(431.4902,441.7959)"
           id="g44">
          <path
             d="m 0,0 c 0.527,-0.416 0.862,-1.062 0.862,-1.785 0,-1.261 -1.018,-2.282 -2.282,-2.282 l -14.116,0 0,-5.269 10.22,0 c 1.261,0 2.28,-1.02 2.28,-2.28 l 0,-25.522 19.255,22.386 c 3.258,3.262 3.258,8.565 0,11.822 L -6.818,23.86 c -0.656,0.656 -1.637,0.849 -2.488,0.495 -0.848,-0.352 -1.409,-1.184 -1.409,-2.106 l 0,-12.923 -0.078,0 10.62,-9.133 C -0.11,0.131 -0.053,0.068 0,0"
             inkscape:connector-curvature="0"
             id="path46"
             style="fill:#d72156;fill-opacity:1;fill-rule:nonzero;stroke:none" />
        </g>
        <g
           transform="translate(359.9102,405.7178)"
           id="g48">
          <path
             d="m 0,0 23.035,-26.791 c 0.652,-0.65 1.631,-0.846 2.484,-0.492 0.85,0.354 1.407,1.185 1.407,2.105 l 0,12.686 -8.713,7.49 c -0.062,0.063 -0.12,0.131 -0.173,0.197 -0.525,0.416 -0.862,1.061 -0.862,1.785 0,1.258 1.018,2.28 2.279,2.28 l 14.123,0 0,5.271 -10.226,0 c -1.256,0 -2.279,1.02 -2.279,2.28 l 0,25.57 -3.399,0 L 0,11.823 C -3.262,8.563 -3.262,3.26 0,0"
             inkscape:connector-curvature="0"
             id="path50"
             style="fill:#fcea24;fill-opacity:1;fill-rule:nonzero;stroke:none" />
        </g>
        <g
           transform="translate(377.9502,400.9131)"
           id="g52">
          <path
             d="m 0,0 c 0.053,-0.066 0.111,-0.135 0.173,-0.197 l 8.713,-7.49 18.075,-15.543 c 3.263,-3.26 8.566,-3.26 11.825,0 l 26.79,23.033 c 0.652,0.654 0.849,1.633 0.494,2.485 -0.35,0.852 -1.184,1.407 -2.106,1.407 l -13.46,0 0,0.05 0,25.522 c 0,1.259 -1.019,2.28 -2.28,2.28 l -10.22,0 0,-17.377 0,-2.555 c 0,-0.892 -0.518,-1.658 -1.266,-2.033 -0.308,-0.15 -0.65,-0.246 -1.016,-0.246 l -20.182,0 0,-5.272 -14.123,0 C 0.156,4.064 -0.862,3.043 -0.862,1.785 -0.862,1.061 -0.525,0.416 0,0"
             inkscape:connector-curvature="0"
             id="path54"
             style="fill:#f39415;fill-opacity:1;fill-rule:nonzero;stroke:none" />
        </g>
        <g
           transform="translate(383.1387,444.5029)"
           id="g56">
          <path
             d="m 0,0 c 0.419,0.527 1.063,0.863 1.786,0.863 1.26,0 2.281,-1.018 2.281,-2.279 l 0,-14.122 6.285,0 0,1.215 0,0.003 0,18.658 c 0,1.262 1.018,2.281 2.278,2.281 l 24.929,0 -16.171,13.904 c -3.258,3.26 -8.564,3.26 -11.824,0 L -17.221,-2.514 c -0.656,-0.649 -0.848,-1.631 -0.496,-2.482 0.354,-0.854 1.184,-1.408 2.106,-1.408 l 10.058,0 5.36,6.23 C -0.135,-0.109 -0.065,-0.051 0,0"
             inkscape:connector-curvature="0"
             id="path58"
             style="fill:#82cff5;fill-opacity:1;fill-rule:nonzero;stroke:none" />
        </g>
        <g
           transform="translate(393.4902,448.8408)"
           id="g60">
          <path
             d="m 0,0 0,-18.658 c 0,1.257 1.019,2.277 2.278,2.277 l 20.186,0 0,5.269 14.116,0 c 1.264,0 2.282,1.021 2.282,2.282 0,0.723 -0.335,1.369 -0.862,1.785 -0.053,0.068 -0.11,0.131 -0.173,0.193 l -10.62,9.133 -24.929,0 C 1.019,2.281 0,1.262 0,0"
             inkscape:connector-curvature="0"
             id="path62"
             style="fill:#a42960;fill-opacity:1;fill-rule:nonzero;stroke:none" />
        </g>
        <g
           transform="translate(380.9854,412.5283)"
           id="g64">
          <path
             d="m 0,0 c 0,-1.26 1.022,-2.279 2.278,-2.279 l 10.227,0 0,18.716 -6.284,0 0,14.122 c 0,1.26 -1.022,2.279 -2.282,2.279 -0.722,0 -1.367,-0.336 -1.786,-0.863 C 2.088,31.924 2.019,31.865 1.96,31.801 L -3.399,25.57 0,25.57 0,0 z"
             inkscape:connector-curvature="0"
             id="path66"
             style="fill:#96c22c;fill-opacity:1;fill-rule:nonzero;stroke:none" />
        </g>
        <g
           transform="translate(413.6719,410.249)"
           id="g68">
          <path
             d="m 0,0 c 0.366,0 0.708,0.096 1.017,0.246 0.748,0.375 1.265,1.141 1.265,2.033 l 0,2.555 0,17.377 -20.185,0 c -1.26,0 -2.279,-1.022 -2.279,-2.277 l 0,-1.219 L -20.182,0 0,0 z"
             inkscape:connector-curvature="0"
             id="path70"
             style="fill:#7a7335;fill-opacity:1;fill-rule:nonzero;stroke:none" />
        </g>
        <g
           transform="translate(400.8359,423.5869)"
           id="g72">
          <path
             d="m 0,0 c 0,0.84 0.679,1.52 1.519,1.52 l 4.735,0 C 7.095,1.52 7.773,0.84 7.773,0 l 0,-4.465 c 0,-0.84 -0.678,-1.521 -1.519,-1.521 l -4.735,0 C 0.679,-5.986 0,-5.305 0,-4.465 L 0,0 z"
             inkscape:connector-curvature="0"
             id="path74"
             style="fill:#ffffff;fill-opacity:1;fill-rule:nonzero;stroke:none" />
        </g>
      </g>
    </g>
  </g>
</svg>
