<?xml version="1.0" encoding="UTF-8" standalone="no"?>
<!-- Created with Inkscape (http://www.inkscape.org/) -->

<svg
   xmlns:dc="http://purl.org/dc/elements/1.1/"
   xmlns:cc="http://creativecommons.org/ns#"
   xmlns:rdf="http://www.w3.org/1999/02/22-rdf-syntax-ns#"
   xmlns:svg="http://www.w3.org/2000/svg"
   xmlns="http://www.w3.org/2000/svg"
   version="1.1"
   width="120"
   height="37"
   id="svg3066">
  <defs
     id="defs3068">
    <clipPath
       id="clipPath20">
      <path
         d="m 0,841.89 595.28,0 L 595.28,0 0,0 0,841.89 z"
         id="path22" />
    </clipPath>
  </defs>
  <metadata
     id="metadata3071">
    <rdf:RDF>
      <cc:Work
         rdf:about="">
        <dc:format>image/svg+xml</dc:format>
        <dc:type
           rdf:resource="http://purl.org/dc/dcmitype/StillImage" />
        <dc:title></dc:title>
      </cc:Work>
    </rdf:RDF>
  </metadata>
  <g
     transform="translate(0,-23)"
     id="layer1">
    <g
       transform="scale(0.88992791,1.1236865)"
       id="text12"
       style="font-size:4.2282877px">
      <path
         d="m 3.2649123,46.247257 0,0.548932 C 3.0896631,46.632973 2.9023907,46.510989 2.7030944,46.430235 2.5055105,46.349488 2.2950438,46.309112 2.0716936,46.309109 c -0.4398348,3e-6 -0.7765815,0.134874 -1.0102414,0.404612 -0.2336622,0.268026 -0.35049272,0.656315 -0.35049187,1.16487 -8.5e-7,0.50684 0.11682967,0.89513 0.35049187,1.16487 0.2336599,0.268024 0.5704066,0.402035 1.0102414,0.402035 0.2233502,0 0.4338169,-0.04037 0.6314008,-0.121126 0.1992963,-0.08075 0.3865687,-0.202735 0.5618179,-0.365955 l 0,0.543778 c -0.1821216,0.123703 -0.3754073,0.21648 -0.5798579,0.278332 -0.2027381,0.06185 -0.4175001,0.09278 -0.6442866,0.09278 -0.5824366,0 -1.04116822,-0.177823 -1.37619611,-0.533469 -0.33502948,-0.357364 -0.50254382,-0.844444 -0.50254352,-1.461242 -3e-7,-0.618513 0.16751404,-1.105593 0.50254352,-1.461242 0.33502789,-0.357361 0.79375951,-0.536043 1.37619611,-0.536046 0.2302227,3e-6 0.4467027,0.03093 0.6494409,0.09278 0.2044505,0.06014 0.3960182,0.151196 0.5747036,0.273177"
         id="path3015"
         style="font-size:5.27799559px;font-variant:normal;font-weight:normal;font-stretch:normal;writing-mode:lr-tb;fill:#82cff5;fill-opacity:1;fill-rule:nonzero;stroke:none;font-family:Calibri;-inkscape-font-specification:Calibri" />
      <path
         d="m 4.0535191,46.912161 0.474195,0 0,2.886404 -0.474195,0 0,-2.886404 m 0,-1.123636 0.474195,0 0,0.600475 -0.474195,0 0,-0.600475"
         id="path3017"
         style="font-size:5.27799559px;font-variant:normal;font-weight:normal;font-stretch:normal;writing-mode:lr-tb;fill:#82cff5;fill-opacity:1;fill-rule:nonzero;stroke:none;font-family:Calibri;-inkscape-font-specification:Calibri" />
      <path
         d="m 5.9863788,46.092629 0,0.819532 0.9767384,0 0,0.368532 -0.9767384,0 0,1.566905 c -1e-6,0.23538 0.031784,0.386572 0.095354,0.453578 0.065287,0.06701 0.1967209,0.100509 0.3943034,0.100508 l 0.4870806,0 0,0.396881 -0.4870806,0 c -0.3659559,0 -0.618516,-0.06787 -0.757681,-0.203595 -0.1391661,-0.137447 -0.208749,-0.386571 -0.2087485,-0.747372 l 0,-1.566905 -0.3479147,0 0,-0.368532 0.3479147,0 0,-0.819532 0.4767721,0"
         id="path3019"
         style="font-size:5.27799559px;font-variant:normal;font-weight:normal;font-stretch:normal;writing-mode:lr-tb;fill:#82cff5;fill-opacity:1;fill-rule:nonzero;stroke:none;font-family:Calibri;-inkscape-font-specification:Calibri" />
      <path
         d="m 7.5893639,46.912161 0.474195,0 0,2.886404 -0.474195,0 0,-2.886404 m 0,-1.123636 0.474195,0 0,0.600475 -0.474195,0 0,-0.600475"
         id="path3021"
         style="font-size:5.27799559px;font-variant:normal;font-weight:normal;font-stretch:normal;writing-mode:lr-tb;fill:#82cff5;fill-opacity:1;fill-rule:nonzero;stroke:none;font-family:Calibri;-inkscape-font-specification:Calibri" />
      <path
         d="m 11.52209,48.236814 0,0.231943 -2.1802662,0 c 0.020616,0.32644 0.1185478,0.575564 0.2937947,0.747373 0.1769628,0.170092 0.4226505,0.255138 0.7370635,0.255137 0.182117,1e-6 0.358221,-0.02233 0.528315,-0.067 0.171808,-0.04467 0.341899,-0.111676 0.510275,-0.201018 l 0,0.448424 c -0.170094,0.07216 -0.344481,0.127139 -0.52316,0.164937 -0.178685,0.0378 -0.359944,0.0567 -0.543778,0.0567 -0.4604517,0 -0.8255471,-0.134011 -1.0952874,-0.402035 -0.2680237,-0.268022 -0.4020352,-0.63054 -0.4020349,-1.087555 -3e-7,-0.472475 0.1271388,-0.84702 0.3814177,-1.123636 0.2559956,-0.278329 0.6004738,-0.417495 1.0334356,-0.417498 0.388288,3e-6 0.694968,0.125424 0.920041,0.376263 0.226786,0.249127 0.340181,0.588451 0.340184,1.017973 m -0.474195,-0.139166 c -0.0034,-0.25943 -0.07646,-0.466461 -0.219058,-0.621092 -0.140886,-0.154626 -0.328158,-0.231941 -0.561818,-0.231943 -0.264588,2e-6 -0.476773,0.07474 -0.6365548,0.224212 -0.1580659,0.149476 -0.249125,0.359943 -0.2731775,0.631401 l 1.6906083,-0.0026"
         id="path3023"
         style="font-size:5.27799559px;font-variant:normal;font-weight:normal;font-stretch:normal;writing-mode:lr-tb;fill:#82cff5;fill-opacity:1;fill-rule:nonzero;stroke:none;font-family:Calibri;-inkscape-font-specification:Calibri" />
      <path
         d="m 14.14047,46.997207 0,0.448423 c -0.134014,-0.06872 -0.27318,-0.120264 -0.417498,-0.154628 -0.144322,-0.03436 -0.293796,-0.05154 -0.448423,-0.05154 -0.235381,2e-6 -0.412345,0.03608 -0.530893,0.10824 -0.116831,0.07216 -0.175246,0.180402 -0.175246,0.32472 0,0.10996 0.04209,0.196724 0.126281,0.260292 0.08418,0.06185 0.253418,0.121128 0.507697,0.177823 l 0.162361,0.03608 c 0.336745,0.07216 0.57556,0.174389 0.716446,0.306681 0.1426,0.130576 0.213901,0.313553 0.213903,0.548932 -2e-6,0.268023 -0.106524,0.480208 -0.319566,0.636555 -0.211328,0.156347 -0.502545,0.23452 -0.873652,0.23452 -0.15463,0 -0.316131,-0.01546 -0.484504,-0.04639 -0.166656,-0.02921 -0.342761,-0.07388 -0.528315,-0.134012 l 0,-0.489658 c 0.175246,0.09106 0.347914,0.159784 0.518007,0.206172 0.17009,0.04467 0.338464,0.06701 0.50512,0.06701 0.223351,0 0.395161,-0.0378 0.51543,-0.113395 0.120264,-0.07731 0.180398,-0.185554 0.1804,-0.32472 -2e-6,-0.128857 -0.04381,-0.227647 -0.131435,-0.296372 -0.08591,-0.06872 -0.275756,-0.13487 -0.569549,-0.19844 l -0.164937,-0.03866 c -0.293796,-0.06185 -0.505981,-0.156345 -0.636555,-0.283486 -0.130576,-0.128855 -0.195864,-0.30496 -0.195864,-0.528315 0,-0.271457 0.09621,-0.481064 0.288641,-0.628823 0.192426,-0.147754 0.465603,-0.221632 0.819532,-0.221635 0.175245,3e-6 0.340182,0.01289 0.494812,0.03866 0.154627,0.02578 0.297229,0.06443 0.427807,0.115972"
         id="path3025"
         style="font-size:5.27799559px;font-variant:normal;font-weight:normal;font-stretch:normal;writing-mode:lr-tb;fill:#82cff5;fill-opacity:1;fill-rule:nonzero;stroke:none;font-family:Calibri;-inkscape-font-specification:Calibri" />
      <path
         d="m 17.202119,46.092629 0,0.819532 0.976739,0 0,0.368532 -0.976739,0 0,1.566905 c -1e-6,0.23538 0.03178,0.386572 0.09536,0.453578 0.06529,0.06701 0.196721,0.100509 0.394303,0.100508 l 0.487081,0 0,0.396881 -0.487081,0 c -0.365956,0 -0.618516,-0.06787 -0.757681,-0.203595 -0.139166,-0.137447 -0.208749,-0.386571 -0.208749,-0.747372 l 0,-1.566905 -0.347914,0 0,-0.368532 0.347914,0 0,-0.819532 0.476772,0"
         id="path3027"
         style="font-size:5.27799559px;font-variant:normal;font-weight:normal;font-stretch:normal;writing-mode:lr-tb;fill:#82cff5;fill-opacity:1;fill-rule:nonzero;stroke:none;font-family:Calibri;-inkscape-font-specification:Calibri" />
      <path
         d="m 21.204427,48.056414 0,1.742151 -0.474195,0 0,-1.726688 c -2e-6,-0.273176 -0.05326,-0.477629 -0.159783,-0.613361 -0.106524,-0.135727 -0.266307,-0.203592 -0.479349,-0.203594 -0.255998,2e-6 -0.457874,0.08161 -0.605629,0.244828 -0.147758,0.163222 -0.221636,0.385715 -0.221635,0.667481 l 0,1.631334 -0.476772,0 0,-4.01004 0.476772,0 0,1.57206 c 0.113394,-0.173526 0.246546,-0.303242 0.399458,-0.38915 0.154627,-0.0859 0.33245,-0.128854 0.533469,-0.128857 0.331591,3e-6 0.582433,0.103089 0.752527,0.309258 0.170089,0.204456 0.255134,0.505982 0.255137,0.904578"
         id="path3029"
         style="font-size:5.27799559px;font-variant:normal;font-weight:normal;font-stretch:normal;writing-mode:lr-tb;fill:#82cff5;fill-opacity:1;fill-rule:nonzero;stroke:none;font-family:Calibri;-inkscape-font-specification:Calibri" />
      <path
         d="m 23.467162,48.347632 c -0.383137,1e-6 -0.648583,0.04381 -0.796338,0.131434 -0.147758,0.08762 -0.221636,0.237099 -0.221635,0.448423 -1e-6,0.168375 0.05498,0.302386 0.164937,0.402035 0.111676,0.09793 0.262868,0.146898 0.453578,0.146898 0.262867,0 0.473334,-0.09278 0.631401,-0.278332 0.159781,-0.187272 0.239672,-0.435537 0.239675,-0.744795 l 0,-0.105663 -0.471618,0 m 0.945813,-0.195864 0,1.646797 -0.474195,0 0,-0.438115 c -0.108243,0.175246 -0.243113,0.304962 -0.404612,0.389149 -0.161503,0.08247 -0.359084,0.123703 -0.592744,0.123703 -0.295514,0 -0.530893,-0.08247 -0.706138,-0.247406 -0.173528,-0.166655 -0.260292,-0.389148 -0.260292,-0.667481 0,-0.324719 0.10824,-0.569548 0.324721,-0.734486 0.218197,-0.164936 0.542917,-0.247405 0.974161,-0.247407 l 0.664904,0 0,-0.04639 c -3e-6,-0.218196 -0.07216,-0.38657 -0.216481,-0.505121 -0.142604,-0.120264 -0.343621,-0.180398 -0.603052,-0.1804 -0.164939,2e-6 -0.32558,0.01976 -0.481926,0.05927 -0.156348,0.03952 -0.306681,0.09879 -0.451001,0.177823 l 0,-0.438114 c 0.173527,-0.067 0.341901,-0.116828 0.505121,-0.149475 0.163218,-0.03436 0.322142,-0.05154 0.476772,-0.05154 0.417496,3e-6 0.72933,0.108243 0.935504,0.324721 0.206169,0.216482 0.309255,0.544639 0.309258,0.984469"
         id="path3031"
         style="font-size:5.27799559px;font-variant:normal;font-weight:normal;font-stretch:normal;writing-mode:lr-tb;fill:#82cff5;fill-opacity:1;fill-rule:nonzero;stroke:none;font-family:Calibri;-inkscape-font-specification:Calibri" />
      <path
         d="m 25.861332,46.092629 0,0.819532 0.976738,0 0,0.368532 -0.976738,0 0,1.566905 c -1e-6,0.23538 0.03178,0.386572 0.09535,0.453578 0.06529,0.06701 0.196721,0.100509 0.394303,0.100508 l 0.487081,0 0,0.396881 -0.487081,0 c -0.365955,0 -0.618516,-0.06787 -0.757681,-0.203595 -0.139166,-0.137447 -0.208749,-0.386571 -0.208748,-0.747372 l 0,-1.566905 -0.347915,0 0,-0.368532 0.347915,0 0,-0.819532 0.476772,0"
         id="path3033"
         style="font-size:5.27799559px;font-variant:normal;font-weight:normal;font-stretch:normal;writing-mode:lr-tb;fill:#82cff5;fill-opacity:1;fill-rule:nonzero;stroke:none;font-family:Calibri;-inkscape-font-specification:Calibri" />
      <path
         d="m 32.046483,46.247257 0,0.548932 c -0.175249,-0.163216 -0.362522,-0.2852 -0.561818,-0.365954 -0.197584,-0.08075 -0.408051,-0.121123 -0.631401,-0.121126 -0.439835,3e-6 -0.776582,0.134874 -1.010241,0.404612 -0.233663,0.268026 -0.350493,0.656315 -0.350492,1.16487 -1e-6,0.50684 0.116829,0.89513 0.350492,1.16487 0.233659,0.268024 0.570406,0.402035 1.010241,0.402035 0.22335,0 0.433817,-0.04037 0.631401,-0.121126 0.199296,-0.08075 0.386569,-0.202735 0.561818,-0.365955 l 0,0.543778 c -0.182122,0.123703 -0.375408,0.21648 -0.579858,0.278332 -0.202738,0.06185 -0.4175,0.09278 -0.644287,0.09278 -0.582436,0 -1.041168,-0.177823 -1.376196,-0.533469 -0.335029,-0.357364 -0.502544,-0.844444 -0.502543,-1.461242 -10e-7,-0.618513 0.167514,-1.105593 0.502543,-1.461242 0.335028,-0.357361 0.79376,-0.536043 1.376196,-0.536046 0.230223,3e-6 0.446703,0.03093 0.649441,0.09278 0.204451,0.06014 0.396018,0.151196 0.574704,0.273177"
         id="path3035"
         style="font-size:5.27799559px;font-variant:normal;font-weight:normal;font-stretch:normal;writing-mode:lr-tb;fill:#82cff5;fill-opacity:1;fill-rule:nonzero;stroke:none;font-family:Calibri;-inkscape-font-specification:Calibri" />
      <path
         d="m 34.146855,48.347632 c -0.383137,1e-6 -0.648583,0.04381 -0.796338,0.131434 -0.147757,0.08762 -0.221635,0.237099 -0.221635,0.448423 0,0.168375 0.05498,0.302386 0.164938,0.402035 0.111675,0.09793 0.262867,0.146898 0.453577,0.146898 0.262868,0 0.473334,-0.09278 0.631401,-0.278332 0.159781,-0.187272 0.239673,-0.435537 0.239675,-0.744795 l 0,-0.105663 -0.471618,0 m 0.945813,-0.195864 0,1.646797 -0.474195,0 0,-0.438115 c -0.108242,0.175246 -0.243113,0.304962 -0.404612,0.389149 -0.161503,0.08247 -0.359084,0.123703 -0.592744,0.123703 -0.295513,0 -0.530893,-0.08247 -0.706138,-0.247406 -0.173528,-0.166655 -0.260292,-0.389148 -0.260292,-0.667481 0,-0.324719 0.10824,-0.569548 0.324721,-0.734486 0.218197,-0.164936 0.542917,-0.247405 0.974161,-0.247407 l 0.664904,0 0,-0.04639 c -2e-6,-0.218196 -0.07216,-0.38657 -0.21648,-0.505121 -0.142604,-0.120264 -0.343622,-0.180398 -0.603053,-0.1804 -0.164938,2e-6 -0.32558,0.01976 -0.481926,0.05927 -0.156348,0.03952 -0.306681,0.09879 -0.451001,0.177823 l 0,-0.438114 c 0.173528,-0.067 0.341901,-0.116828 0.505121,-0.149475 0.163218,-0.03436 0.322142,-0.05154 0.476772,-0.05154 0.417496,3e-6 0.72933,0.108243 0.935504,0.324721 0.206169,0.216482 0.309255,0.544639 0.309258,0.984469"
         id="path3037"
         style="font-size:5.27799559px;font-variant:normal;font-weight:normal;font-stretch:normal;writing-mode:lr-tb;fill:#82cff5;fill-opacity:1;fill-rule:nonzero;stroke:none;font-family:Calibri;-inkscape-font-specification:Calibri" />
      <path
         d="m 37.744552,47.35543 c -0.05326,-0.03092 -0.111678,-0.05326 -0.175246,-0.06701 -0.06185,-0.01546 -0.130577,-0.02319 -0.206172,-0.02319 -0.268024,3e-6 -0.474196,0.08763 -0.618515,0.262869 -0.142603,0.17353 -0.213904,0.423513 -0.213903,0.74995 l 0,1.520516 -0.476772,0 0,-2.886404 0.476772,0 0,0.448424 c 0.09965,-0.175244 0.229365,-0.30496 0.389149,-0.38915 0.159782,-0.0859 0.353927,-0.128854 0.582435,-0.128857 0.03264,3e-6 0.06872,0.0026 0.108241,0.0077 0.03951,0.0034 0.08333,0.0095 0.131434,0.01804 l 0.0026,0.48708"
         id="path3039"
         style="font-size:5.27799559px;font-variant:normal;font-weight:normal;font-stretch:normal;writing-mode:lr-tb;fill:#82cff5;fill-opacity:1;fill-rule:nonzero;stroke:none;font-family:Calibri;-inkscape-font-specification:Calibri" />
      <path
         d="m 40.60003,48.236814 0,0.231943 -2.180266,0 c 0.02062,0.32644 0.118548,0.575564 0.293794,0.747373 0.176963,0.170092 0.422651,0.255138 0.737064,0.255137 0.182117,1e-6 0.358221,-0.02233 0.528315,-0.067 0.171808,-0.04467 0.341899,-0.111676 0.510275,-0.201018 l 0,0.448424 c -0.170094,0.07216 -0.344481,0.127139 -0.52316,0.164937 -0.178685,0.0378 -0.359944,0.0567 -0.543778,0.0567 -0.460452,0 -0.825547,-0.134011 -1.095287,-0.402035 -0.268024,-0.268022 -0.402036,-0.63054 -0.402035,-1.087555 -10e-7,-0.472475 0.127139,-0.84702 0.381417,-1.123636 0.255996,-0.278329 0.600474,-0.417495 1.033436,-0.417498 0.388288,3e-6 0.694968,0.125424 0.920041,0.376263 0.226786,0.249127 0.340181,0.588451 0.340184,1.017973 m -0.474195,-0.139166 c -0.0034,-0.25943 -0.07646,-0.466461 -0.219058,-0.621092 -0.140886,-0.154626 -0.328158,-0.231941 -0.561818,-0.231943 -0.264588,2e-6 -0.476773,0.07474 -0.636555,0.224212 -0.158066,0.149476 -0.249125,0.359943 -0.273177,0.631401 l 1.690608,-0.0026"
         id="path3041"
         style="font-size:5.27799559px;font-variant:normal;font-weight:normal;font-stretch:normal;writing-mode:lr-tb;fill:#82cff5;fill-opacity:1;fill-rule:nonzero;stroke:none;font-family:Calibri;-inkscape-font-specification:Calibri" />
      <path
         d="m 41.499453,49.14397 0.543778,0 0,0.443269 -0.422652,0.824687 -0.332452,0 0.211326,-0.824687 0,-0.443269"
         id="path3043"
         style="font-size:5.27799559px;font-variant:normal;font-weight:normal;font-stretch:normal;writing-mode:lr-tb;fill:#82cff5;fill-opacity:1;fill-rule:nonzero;stroke:none;font-family:Calibri;-inkscape-font-specification:Calibri" />
      <path
         d="m 47.640793,46.247257 0,0.548932 c -0.175249,-0.163216 -0.362521,-0.2852 -0.561817,-0.365954 -0.197584,-0.08075 -0.408051,-0.121123 -0.631401,-0.121126 -0.439835,3e-6 -0.776582,0.134874 -1.010242,0.404612 -0.233662,0.268026 -0.350492,0.656315 -0.350491,1.16487 -10e-7,0.50684 0.116829,0.89513 0.350491,1.16487 0.23366,0.268024 0.570407,0.402035 1.010242,0.402035 0.22335,0 0.433817,-0.04037 0.631401,-0.121126 0.199296,-0.08075 0.386568,-0.202735 0.561817,-0.365955 l 0,0.543778 c -0.182121,0.123703 -0.375407,0.21648 -0.579857,0.278332 -0.202739,0.06185 -0.417501,0.09278 -0.644287,0.09278 -0.582437,0 -1.041168,-0.177823 -1.376196,-0.533469 -0.33503,-0.357364 -0.502544,-0.844444 -0.502544,-1.461242 0,-0.618513 0.167514,-1.105593 0.502544,-1.461242 0.335028,-0.357361 0.793759,-0.536043 1.376196,-0.536046 0.230223,3e-6 0.446703,0.03093 0.649441,0.09278 0.20445,0.06014 0.396018,0.151196 0.574703,0.273177"
         id="path3045"
         style="font-size:5.27799559px;font-variant:normal;font-weight:normal;font-stretch:normal;writing-mode:lr-tb;fill:#82cff5;fill-opacity:1;fill-rule:nonzero;stroke:none;font-family:Calibri;-inkscape-font-specification:Calibri" />
      <path
         d="m 48.429402,46.912161 0.474195,0 0,2.886404 -0.474195,0 0,-2.886404 m 0,-1.123636 0.474195,0 0,0.600475 -0.474195,0 0,-0.600475"
         id="path3047"
         style="font-size:5.27799559px;font-variant:normal;font-weight:normal;font-stretch:normal;writing-mode:lr-tb;fill:#82cff5;fill-opacity:1;fill-rule:nonzero;stroke:none;font-family:Calibri;-inkscape-font-specification:Calibri" />
      <path
         d="m 50.36226,46.092629 0,0.819532 0.976739,0 0,0.368532 -0.976739,0 0,1.566905 c -10e-7,0.23538 0.03178,0.386572 0.09535,0.453578 0.06529,0.06701 0.196721,0.100509 0.394303,0.100508 l 0.487081,0 0,0.396881 -0.487081,0 c -0.365956,0 -0.618516,-0.06787 -0.757681,-0.203595 -0.139166,-0.137447 -0.208749,-0.386571 -0.208749,-0.747372 l 0,-1.566905 -0.347914,0 0,-0.368532 0.347914,0 0,-0.819532 0.476772,0"
         id="path3049"
         style="font-size:5.27799559px;font-variant:normal;font-weight:normal;font-stretch:normal;writing-mode:lr-tb;fill:#82cff5;fill-opacity:1;fill-rule:nonzero;stroke:none;font-family:Calibri;-inkscape-font-specification:Calibri" />
      <path
         d="m 51.965245,46.912161 0.474195,0 0,2.886404 -0.474195,0 0,-2.886404 m 0,-1.123636 0.474195,0 0,0.600475 -0.474195,0 0,-0.600475"
         id="path3051"
         style="font-size:5.27799559px;font-variant:normal;font-weight:normal;font-stretch:normal;writing-mode:lr-tb;fill:#82cff5;fill-opacity:1;fill-rule:nonzero;stroke:none;font-family:Calibri;-inkscape-font-specification:Calibri" />
      <path
         d="m 55.897973,48.236814 0,0.231943 -2.180266,0 c 0.02062,0.32644 0.118548,0.575564 0.293795,0.747373 0.176962,0.170092 0.42265,0.255138 0.737063,0.255137 0.182117,1e-6 0.358222,-0.02233 0.528315,-0.067 0.171808,-0.04467 0.341899,-0.111676 0.510275,-0.201018 l 0,0.448424 c -0.170094,0.07216 -0.344481,0.127139 -0.52316,0.164937 -0.178685,0.0378 -0.359944,0.0567 -0.543778,0.0567 -0.460452,0 -0.825547,-0.134011 -1.095287,-0.402035 -0.268024,-0.268022 -0.402035,-0.63054 -0.402035,-1.087555 0,-0.472475 0.127139,-0.84702 0.381417,-1.123636 0.255996,-0.278329 0.600474,-0.417495 1.033436,-0.417498 0.388288,3e-6 0.694968,0.125424 0.920041,0.376263 0.226786,0.249127 0.340181,0.588451 0.340184,1.017973 m -0.474195,-0.139166 c -0.0034,-0.25943 -0.07646,-0.466461 -0.219058,-0.621092 -0.140886,-0.154626 -0.328158,-0.231941 -0.561818,-0.231943 -0.264588,2e-6 -0.476773,0.07474 -0.636555,0.224212 -0.158066,0.149476 -0.249125,0.359943 -0.273177,0.631401 l 1.690608,-0.0026"
         id="path3053"
         style="font-size:5.27799559px;font-variant:normal;font-weight:normal;font-stretch:normal;writing-mode:lr-tb;fill:#82cff5;fill-opacity:1;fill-rule:nonzero;stroke:none;font-family:Calibri;-inkscape-font-specification:Calibri" />
      <path
         d="m 58.516353,46.997207 0,0.448423 c -0.134014,-0.06872 -0.27318,-0.120264 -0.417498,-0.154628 -0.144322,-0.03436 -0.293796,-0.05154 -0.448423,-0.05154 -0.235381,2e-6 -0.412345,0.03608 -0.530892,0.10824 -0.116832,0.07216 -0.175247,0.180402 -0.175246,0.32472 -10e-7,0.10996 0.04209,0.196724 0.12628,0.260292 0.08419,0.06185 0.253418,0.121128 0.507698,0.177823 l 0.16236,0.03608 c 0.336745,0.07216 0.57556,0.174389 0.716446,0.306681 0.1426,0.130576 0.213901,0.313553 0.213904,0.548932 -3e-6,0.268023 -0.106525,0.480208 -0.319567,0.636555 -0.211328,0.156347 -0.502545,0.23452 -0.873652,0.23452 -0.15463,0 -0.316131,-0.01546 -0.484504,-0.04639 -0.166656,-0.02921 -0.342761,-0.07388 -0.528315,-0.134012 l 0,-0.489658 c 0.175246,0.09106 0.347914,0.159784 0.518007,0.206172 0.17009,0.04467 0.338464,0.06701 0.50512,0.06701 0.223352,0 0.395161,-0.0378 0.51543,-0.113395 0.120265,-0.07731 0.180398,-0.185554 0.1804,-0.32472 -2e-6,-0.128857 -0.04381,-0.227647 -0.131435,-0.296372 -0.08591,-0.06872 -0.275756,-0.13487 -0.569549,-0.19844 L 57.31798,48.50484 c -0.293796,-0.06185 -0.505981,-0.156345 -0.636555,-0.283486 -0.130576,-0.128855 -0.195864,-0.30496 -0.195863,-0.528315 -1e-6,-0.271457 0.09621,-0.481064 0.28864,-0.628823 0.192426,-0.147754 0.465603,-0.221632 0.819532,-0.221635 0.175245,3e-6 0.340182,0.01289 0.494813,0.03866 0.154626,0.02578 0.297228,0.06443 0.427806,0.115972"
         id="path3055"
         style="font-size:5.27799559px;font-variant:normal;font-weight:normal;font-stretch:normal;writing-mode:lr-tb;fill:#82cff5;fill-opacity:1;fill-rule:nonzero;stroke:none;font-family:Calibri;-inkscape-font-specification:Calibri" />
      <path
         d="m 61.578001,46.092629 0,0.819532 0.976738,0 0,0.368532 -0.976738,0 0,1.566905 c -10e-7,0.23538 0.03178,0.386572 0.09535,0.453578 0.06529,0.06701 0.196721,0.100509 0.394303,0.100508 l 0.487081,0 0,0.396881 -0.487081,0 c -0.365955,0 -0.618515,-0.06787 -0.757681,-0.203595 -0.139166,-0.137447 -0.208749,-0.386571 -0.208748,-0.747372 l 0,-1.566905 -0.347915,0 0,-0.368532 0.347915,0 0,-0.819532 0.476772,0"
         id="path3057"
         style="font-size:5.27799559px;font-variant:normal;font-weight:normal;font-stretch:normal;writing-mode:lr-tb;fill:#82cff5;fill-opacity:1;fill-rule:nonzero;stroke:none;font-family:Calibri;-inkscape-font-specification:Calibri" />
      <path
         d="m 65.580309,48.056414 0,1.742151 -0.474195,0 0,-1.726688 c -3e-6,-0.273176 -0.05326,-0.477629 -0.159783,-0.613361 -0.106525,-0.135727 -0.266308,-0.203592 -0.47935,-0.203594 -0.255998,2e-6 -0.457874,0.08161 -0.605629,0.244828 -0.147757,0.163222 -0.221636,0.385715 -0.221635,0.667481 l 0,1.631334 -0.476772,0 0,-4.01004 0.476772,0 0,1.57206 c 0.113394,-0.173526 0.246546,-0.303242 0.399458,-0.38915 0.154627,-0.0859 0.33245,-0.128854 0.533469,-0.128857 0.331591,3e-6 0.582433,0.103089 0.752527,0.309258 0.170089,0.204456 0.255135,0.505982 0.255138,0.904578"
         id="path3059"
         style="font-size:5.27799559px;font-variant:normal;font-weight:normal;font-stretch:normal;writing-mode:lr-tb;fill:#82cff5;fill-opacity:1;fill-rule:nonzero;stroke:none;font-family:Calibri;-inkscape-font-specification:Calibri" />
      <path
         d="m 67.843041,48.347632 c -0.383137,1e-6 -0.648583,0.04381 -0.796338,0.131434 -0.147757,0.08762 -0.221635,0.237099 -0.221635,0.448423 0,0.168375 0.05498,0.302386 0.164938,0.402035 0.111675,0.09793 0.262867,0.146898 0.453578,0.146898 0.262867,0 0.473333,-0.09278 0.6314,-0.278332 0.159781,-0.187272 0.239673,-0.435537 0.239675,-0.744795 l 0,-0.105663 -0.471618,0 m 0.945813,-0.195864 0,1.646797 -0.474195,0 0,-0.438115 c -0.108242,0.175246 -0.243113,0.304962 -0.404612,0.389149 -0.161503,0.08247 -0.359084,0.123703 -0.592744,0.123703 -0.295513,0 -0.530893,-0.08247 -0.706138,-0.247406 -0.173528,-0.166655 -0.260292,-0.389148 -0.260292,-0.667481 0,-0.324719 0.10824,-0.569548 0.324721,-0.734486 0.218197,-0.164936 0.542918,-0.247405 0.974161,-0.247407 l 0.664904,0 0,-0.04639 c -2e-6,-0.218196 -0.07216,-0.38657 -0.21648,-0.505121 -0.142604,-0.120264 -0.343622,-0.180398 -0.603053,-0.1804 -0.164938,2e-6 -0.32558,0.01976 -0.481926,0.05927 -0.156348,0.03952 -0.306681,0.09879 -0.451001,0.177823 l 0,-0.438114 c 0.173528,-0.067 0.341901,-0.116828 0.505121,-0.149475 0.163218,-0.03436 0.322142,-0.05154 0.476772,-0.05154 0.417496,3e-6 0.72933,0.108243 0.935504,0.324721 0.206169,0.216482 0.309255,0.544639 0.309258,0.984469"
         id="path3061"
         style="font-size:5.27799559px;font-variant:normal;font-weight:normal;font-stretch:normal;writing-mode:lr-tb;fill:#82cff5;fill-opacity:1;fill-rule:nonzero;stroke:none;font-family:Calibri;-inkscape-font-specification:Calibri" />
      <path
         d="m 70.237215,46.092629 0,0.819532 0.976738,0 0,0.368532 -0.976738,0 0,1.566905 c -1e-6,0.23538 0.03178,0.386572 0.09535,0.453578 0.06529,0.06701 0.196721,0.100509 0.394303,0.100508 l 0.487081,0 0,0.396881 -0.487081,0 c -0.365955,0 -0.618515,-0.06787 -0.757681,-0.203595 -0.139166,-0.137447 -0.208749,-0.386571 -0.208748,-0.747372 l 0,-1.566905 -0.347915,0 0,-0.368532 0.347915,0 0,-0.819532 0.476772,0"
         id="path3063"
         style="font-size:5.27799559px;font-variant:normal;font-weight:normal;font-stretch:normal;writing-mode:lr-tb;fill:#82cff5;fill-opacity:1;fill-rule:nonzero;stroke:none;font-family:Calibri;-inkscape-font-specification:Calibri" />
      <path
         d="m 75.847664,46.077166 0,0.507697 c -0.197584,-0.09449 -0.383997,-0.164933 -0.559241,-0.211325 -0.175248,-0.04639 -0.34448,-0.06958 -0.507697,-0.06958 -0.283488,3e-6 -0.502545,0.05498 -0.657173,0.164937 -0.152911,0.109961 -0.229367,0.266308 -0.229366,0.469041 -10e-7,0.170094 0.05068,0.298951 0.152052,0.386571 0.103085,0.08591 0.297229,0.155491 0.582435,0.208749 l 0.314412,0.06443 c 0.388288,0.07388 0.67435,0.204456 0.858189,0.391726 0.185552,0.185556 0.278329,0.43468 0.278332,0.747373 -3e-6,0.372827 -0.125424,0.655454 -0.376263,0.847881 -0.249127,0.192427 -0.615081,0.28864 -1.097864,0.28864 -0.18212,0 -0.376265,-0.02062 -0.582435,-0.06185 -0.204455,-0.04124 -0.41664,-0.102227 -0.636556,-0.182978 l 0,-0.536046 c 0.211326,0.118549 0.418356,0.20789 0.621093,0.268023 0.202734,0.06013 0.402033,0.0902 0.597898,0.0902 0.297229,1e-6 0.526594,-0.05842 0.688098,-0.175246 0.161498,-0.11683 0.242249,-0.283485 0.242251,-0.499966 -2e-6,-0.18899 -0.05842,-0.336746 -0.175246,-0.443269 -0.115114,-0.106521 -0.304964,-0.186412 -0.569549,-0.239675 l -0.316989,-0.06185 c -0.388291,-0.07731 -0.6692,-0.198439 -0.842727,-0.363378 -0.173528,-0.164935 -0.260292,-0.394301 -0.260291,-0.688098 -10e-7,-0.34018 0.119407,-0.608203 0.358223,-0.80407 0.240533,-0.195859 0.571266,-0.293791 0.992201,-0.293794 0.180399,3e-6 0.364235,0.01632 0.551509,0.04896 0.187271,0.03265 0.378838,0.08161 0.574704,0.146898"
         id="path3065"
         style="font-size:5.27799559px;font-variant:normal;font-weight:normal;font-stretch:normal;writing-mode:lr-tb;fill:#82cff5;fill-opacity:1;fill-rule:nonzero;stroke:none;font-family:Calibri;-inkscape-font-specification:Calibri" />
      <path
         d="m 79.270113,48.056414 0,1.742151 -0.474195,0 0,-1.726688 c -3e-6,-0.273176 -0.05326,-0.477629 -0.159783,-0.613361 -0.106525,-0.135727 -0.266307,-0.203592 -0.47935,-0.203594 -0.255998,2e-6 -0.457874,0.08161 -0.605629,0.244828 -0.147757,0.163222 -0.221636,0.385715 -0.221635,0.667481 l 0,1.631334 -0.476772,0 0,-4.01004 0.476772,0 0,1.57206 c 0.113394,-0.173526 0.246546,-0.303242 0.399458,-0.38915 0.154627,-0.0859 0.33245,-0.128854 0.533469,-0.128857 0.331591,3e-6 0.582433,0.103089 0.752527,0.309258 0.170089,0.204456 0.255135,0.505982 0.255138,0.904578"
         id="path3067"
         style="font-size:5.27799559px;font-variant:normal;font-weight:normal;font-stretch:normal;writing-mode:lr-tb;fill:#82cff5;fill-opacity:1;fill-rule:nonzero;stroke:none;font-family:Calibri;-inkscape-font-specification:Calibri" />
      <path
         d="m 81.532845,48.347632 c -0.383137,1e-6 -0.648583,0.04381 -0.796338,0.131434 -0.147757,0.08762 -0.221635,0.237099 -0.221635,0.448423 0,0.168375 0.05498,0.302386 0.164938,0.402035 0.111675,0.09793 0.262868,0.146898 0.453578,0.146898 0.262867,0 0.473334,-0.09278 0.6314,-0.278332 0.159781,-0.187272 0.239673,-0.435537 0.239675,-0.744795 l 0,-0.105663 -0.471618,0 m 0.945813,-0.195864 0,1.646797 -0.474195,0 0,-0.438115 c -0.108242,0.175246 -0.243113,0.304962 -0.404612,0.389149 -0.161503,0.08247 -0.359084,0.123703 -0.592744,0.123703 -0.295513,0 -0.530892,-0.08247 -0.706138,-0.247406 -0.173528,-0.166655 -0.260292,-0.389148 -0.260291,-0.667481 -10e-7,-0.324719 0.108239,-0.569548 0.32472,-0.734486 0.218198,-0.164936 0.542918,-0.247405 0.974161,-0.247407 l 0.664904,0 0,-0.04639 c -2e-6,-0.218196 -0.07216,-0.38657 -0.21648,-0.505121 -0.142604,-0.120264 -0.343621,-0.180398 -0.603052,-0.1804 -0.164939,2e-6 -0.325581,0.01976 -0.481927,0.05927 -0.156348,0.03952 -0.306681,0.09879 -0.451,0.177823 l 0,-0.438114 c 0.173527,-0.067 0.3419,-0.116828 0.50512,-0.149475 0.163218,-0.03436 0.322142,-0.05154 0.476772,-0.05154 0.417496,3e-6 0.72933,0.108243 0.935504,0.324721 0.206169,0.216482 0.309255,0.544639 0.309258,0.984469"
         id="path3069"
         style="font-size:5.27799559px;font-variant:normal;font-weight:normal;font-stretch:normal;writing-mode:lr-tb;fill:#82cff5;fill-opacity:1;fill-rule:nonzero;stroke:none;font-family:Calibri;-inkscape-font-specification:Calibri" />
      <path
         d="m 85.130538,47.35543 c -0.05326,-0.03092 -0.111678,-0.05326 -0.175246,-0.06701 -0.06185,-0.01546 -0.130577,-0.02319 -0.206171,-0.02319 -0.268025,3e-6 -0.474196,0.08763 -0.618515,0.262869 -0.142603,0.17353 -0.213904,0.423513 -0.213903,0.74995 l 0,1.520516 -0.476773,0 0,-2.886404 0.476773,0 0,0.448424 c 0.09965,-0.175244 0.229364,-0.30496 0.389149,-0.38915 0.159781,-0.0859 0.353926,-0.128854 0.582435,-0.128857 0.03264,3e-6 0.06872,0.0026 0.10824,0.0077 0.03951,0.0034 0.08333,0.0095 0.131434,0.01804 l 0.0026,0.48708"
         id="path3071"
         style="font-size:5.27799559px;font-variant:normal;font-weight:normal;font-stretch:normal;writing-mode:lr-tb;fill:#82cff5;fill-opacity:1;fill-rule:nonzero;stroke:none;font-family:Calibri;-inkscape-font-specification:Calibri" />
      <path
         d="m 87.98602,48.236814 0,0.231943 -2.180266,0 c 0.02062,0.32644 0.118548,0.575564 0.293795,0.747373 0.176962,0.170092 0.42265,0.255138 0.737063,0.255137 0.182117,1e-6 0.358222,-0.02233 0.528315,-0.067 0.171808,-0.04467 0.341899,-0.111676 0.510275,-0.201018 l 0,0.448424 c -0.170094,0.07216 -0.344481,0.127139 -0.52316,0.164937 -0.178685,0.0378 -0.359944,0.0567 -0.543778,0.0567 -0.460452,0 -0.825547,-0.134011 -1.095287,-0.402035 -0.268024,-0.268022 -0.402035,-0.63054 -0.402035,-1.087555 0,-0.472475 0.127139,-0.84702 0.381418,-1.123636 0.255995,-0.278329 0.600473,-0.417495 1.033435,-0.417498 0.388288,3e-6 0.694968,0.125424 0.920041,0.376263 0.226786,0.249127 0.340181,0.588451 0.340184,1.017973 m -0.474195,-0.139166 c -0.0034,-0.25943 -0.07646,-0.466461 -0.219058,-0.621092 -0.140886,-0.154626 -0.328158,-0.231941 -0.561818,-0.231943 -0.264588,2e-6 -0.476773,0.07474 -0.636555,0.224212 -0.158066,0.149476 -0.249125,0.359943 -0.273177,0.631401 l 1.690608,-0.0026"
         id="path3073"
         style="font-size:5.27799559px;font-variant:normal;font-weight:normal;font-stretch:normal;writing-mode:lr-tb;fill:#82cff5;fill-opacity:1;fill-rule:nonzero;stroke:none;font-family:Calibri;-inkscape-font-specification:Calibri" />
    </g>
    <g
       transform="matrix(0.39705722,0,0,-0.39593912,-59.072415,208.38042)"
       id="g16">
      <g
         clip-path="url(#clipPath20)"
         id="g18">
        <g
           transform="translate(161.3838,410.0928)"
           id="g24">
          <path
             d="m 0,0 0.542,2.377 c 0.406,1.759 1.969,2.438 3.66,1.896 1.83,-0.544 5.628,-1.627 9.832,-1.627 3.525,0 5.624,2.1 5.624,5.153 0,8.202 -19.116,6.098 -19.116,21.081 0,7.934 6.847,12.882 15.459,12.882 4.066,0 7.592,-0.946 10.235,-1.831 1.763,-0.606 2.373,-2.236 1.83,-3.929 L 27.389,33.898 C 26.846,32.2 25.421,31.39 23.664,32.001 c -2.445,0.745 -4.681,1.289 -7.663,1.289 -3.866,0 -5.153,-1.97 -5.153,-4.271 0,-7.665 19.118,-5.29 19.118,-21.152 0,-9.154 -7.661,-13.694 -15.932,-13.694 -5.221,0 -9.628,1.149 -12.136,1.964 C 0.271,-3.319 -0.406,-1.828 0,0"
             id="path26"
             style="fill:#82cff5;fill-opacity:1;fill-rule:nonzero;stroke:none" />
        </g>
        <g
           transform="translate(197.1084,447.9229)"
           id="g28">
          <path
             d="m 0,0 c 0,1.829 1.219,3.053 3.052,3.053 l 3.862,0 C 8.742,3.053 9.966,1.829 9.966,0 l 0,-15.321 14.102,0 0,15.321 c 0,1.829 1.221,3.053 3.05,3.053 l 3.864,0 c 1.83,0 3.054,-1.224 3.054,-3.053 l 0,-39.728 c 0,-1.834 -1.224,-3.05 -3.054,-3.05 l -3.864,0 c -1.829,0 -3.05,1.216 -3.05,3.05 l 0,16.136 -14.102,0 0,-16.136 c 0,-1.834 -1.224,-3.05 -3.052,-3.05 l -3.862,0 C 1.219,-42.778 0,-41.562 0,-39.728 L 0,0 z"
             id="path30"
             style="fill:#82cff5;fill-opacity:1;fill-rule:nonzero;stroke:none" />
        </g>
        <g
           transform="translate(259.5459,424.2637)"
           id="g32">
          <path
             d="m 0,0 -2.373,8.678 c -0.609,2.102 -1.22,4.948 -1.764,7.797 C -4.676,13.626 -5.357,10.78 -5.9,8.678 L -8.271,0 0,0 z m -10.779,23.796 c 0.54,1.763 2.102,2.916 3.93,2.916 l 5.426,0 c 1.829,0 3.388,-1.153 3.931,-2.916 l 11.931,-39.729 c 0.544,-1.829 -0.337,-3.186 -2.168,-3.186 l -4.203,0 c -1.831,0 -3.049,0.883 -3.528,2.642 l -2.301,8.41 -12.748,0 -2.303,-8.338 c -0.479,-1.765 -1.629,-2.714 -3.46,-2.714 l -4.271,0 c -1.83,0 -2.712,1.357 -2.167,3.186 l 11.931,39.729 z"
             id="path34"
             style="fill:#82cff5;fill-opacity:1;fill-rule:nonzero;stroke:none" />
        </g>
        <g
           transform="translate(295.543,430.1631)"
           id="g36">
          <path
             d="m 0,0 c 3.187,0 5.492,2.438 5.492,6.166 0,3.662 -2.305,6.171 -5.492,6.171 l -5.897,0 L -5.897,0 0,0 z m -15.863,17.76 c 0,1.829 1.218,3.052 3.05,3.052 l 13.289,0 c 9.288,0 15.049,-6.916 15.049,-14.646 0,-5.556 -2.985,-10.371 -8.135,-12.678 l 6.845,-14.643 c 1.019,-2.104 -0.065,-3.864 -2.167,-3.864 l -4.407,0 c -1.831,0 -3.187,1.085 -3.933,2.78 l -6.236,14.305 -3.389,0 0,-14.034 c 0,-1.834 -1.222,-3.051 -3.053,-3.051 l -3.863,0 c -1.832,0 -3.05,1.217 -3.05,3.051 l 0,39.728 z"
             id="path38"
             style="fill:#82cff5;fill-opacity:1;fill-rule:nonzero;stroke:none" />
        </g>
        <g
           transform="translate(317.0312,447.9229)"
           id="g40">
          <path
             d="m 0,0 c 0,1.829 1.221,3.053 3.051,3.053 l 21.288,0 C 26.171,3.053 27.39,1.829 27.39,0 l 0,-2.372 c 0,-1.831 -1.219,-3.051 -3.051,-3.051 l -14.371,0 0,-10.17 11.589,0 c 1.834,0 2.985,-0.883 2.917,-2.778 l -0.135,-2.647 c -0.067,-1.828 -1.355,-2.712 -3.187,-2.712 l -11.184,0 0,-10.574 14.982,0 c 1.828,0 3.05,-1.22 3.05,-3.052 l 0,-2.372 c 0,-1.834 -1.222,-3.05 -3.05,-3.05 l -21.899,0 c -1.83,0 -3.051,1.216 -3.051,3.05 L 0,0 z"
             id="path42"
             style="fill:#82cff5;fill-opacity:1;fill-rule:nonzero;stroke:none" />
        </g>
        <g
           transform="translate(431.4902,441.7959)"
           id="g44">
          <path
             d="m 0,0 c 0.527,-0.416 0.862,-1.062 0.862,-1.785 0,-1.261 -1.018,-2.282 -2.282,-2.282 l -14.116,0 0,-5.269 10.22,0 c 1.261,0 2.28,-1.02 2.28,-2.28 l 0,-25.522 19.255,22.386 c 3.258,3.262 3.258,8.565 0,11.822 L -6.818,23.86 c -0.656,0.656 -1.637,0.849 -2.488,0.495 -0.848,-0.352 -1.409,-1.184 -1.409,-2.106 l 0,-12.923 -0.078,0 10.62,-9.133 C -0.11,0.131 -0.053,0.068 0,0"
             id="path46"
             style="fill:#d72156;fill-opacity:1;fill-rule:nonzero;stroke:none" />
        </g>
        <g
           transform="translate(359.9102,405.7178)"
           id="g48">
          <path
             d="m 0,0 23.035,-26.791 c 0.652,-0.65 1.631,-0.846 2.484,-0.492 0.85,0.354 1.407,1.185 1.407,2.105 l 0,12.686 -8.713,7.49 c -0.062,0.063 -0.12,0.131 -0.173,0.197 -0.525,0.416 -0.862,1.061 -0.862,1.785 0,1.258 1.018,2.28 2.279,2.28 l 14.123,0 0,5.271 -10.226,0 c -1.256,0 -2.279,1.02 -2.279,2.28 l 0,25.57 -3.399,0 L 0,11.823 C -3.262,8.563 -3.262,3.26 0,0"
             id="path50"
             style="fill:#fcea24;fill-opacity:1;fill-rule:nonzero;stroke:none" />
        </g>
        <g
           transform="translate(377.9502,400.9131)"
           id="g52">
          <path
             d="m 0,0 c 0.053,-0.066 0.111,-0.135 0.173,-0.197 l 8.713,-7.49 18.075,-15.543 c 3.263,-3.26 8.566,-3.26 11.825,0 l 26.79,23.033 c 0.652,0.654 0.849,1.633 0.494,2.485 -0.35,0.852 -1.184,1.407 -2.106,1.407 l -13.46,0 0,0.05 0,25.522 c 0,1.259 -1.019,2.28 -2.28,2.28 l -10.22,0 0,-17.377 0,-2.555 c 0,-0.892 -0.518,-1.658 -1.266,-2.033 -0.308,-0.15 -0.65,-0.246 -1.016,-0.246 l -20.182,0 0,-5.272 -14.123,0 C 0.156,4.064 -0.862,3.043 -0.862,1.785 -0.862,1.061 -0.525,0.416 0,0"
             id="path54"
             style="fill:#f39415;fill-opacity:1;fill-rule:nonzero;stroke:none" />
        </g>
        <g
           transform="translate(383.1387,444.5029)"
           id="g56">
          <path
             d="m 0,0 c 0.419,0.527 1.063,0.863 1.786,0.863 1.26,0 2.281,-1.018 2.281,-2.279 l 0,-14.122 6.285,0 0,1.215 0,0.003 0,18.658 c 0,1.262 1.018,2.281 2.278,2.281 l 24.929,0 -16.171,13.904 c -3.258,3.26 -8.564,3.26 -11.824,0 L -17.221,-2.514 c -0.656,-0.649 -0.848,-1.631 -0.496,-2.482 0.354,-0.854 1.184,-1.408 2.106,-1.408 l 10.058,0 5.36,6.23 C -0.135,-0.109 -0.065,-0.051 0,0"
             id="path58"
             style="fill:#82cff5;fill-opacity:1;fill-rule:nonzero;stroke:none" />
        </g>
        <g
           transform="translate(393.4902,448.8408)"
           id="g60">
          <path
             d="m 0,0 0,-18.658 c 0,1.257 1.019,2.277 2.278,2.277 l 20.186,0 0,5.269 14.116,0 c 1.264,0 2.282,1.021 2.282,2.282 0,0.723 -0.335,1.369 -0.862,1.785 -0.053,0.068 -0.11,0.131 -0.173,0.193 l -10.62,9.133 -24.929,0 C 1.019,2.281 0,1.262 0,0"
             id="path62"
             style="fill:#a42960;fill-opacity:1;fill-rule:nonzero;stroke:none" />
        </g>
        <g
           transform="translate(380.9854,412.5283)"
           id="g64">
          <path
             d="m 0,0 c 0,-1.26 1.022,-2.279 2.278,-2.279 l 10.227,0 0,18.716 -6.284,0 0,14.122 c 0,1.26 -1.022,2.279 -2.282,2.279 -0.722,0 -1.367,-0.336 -1.786,-0.863 C 2.088,31.924 2.019,31.865 1.96,31.801 L -3.399,25.57 0,25.57 0,0 z"
             id="path66"
             style="fill:#96c22c;fill-opacity:1;fill-rule:nonzero;stroke:none" />
        </g>
        <g
           transform="translate(413.6719,410.249)"
           id="g68">
          <path
             d="m 0,0 c 0.366,0 0.708,0.096 1.017,0.246 0.748,0.375 1.265,1.141 1.265,2.033 l 0,2.555 0,17.377 -20.185,0 c -1.26,0 -2.279,-1.022 -2.279,-2.277 l 0,-1.219 L -20.182,0 0,0 z"
             id="path70"
             style="fill:#7a7335;fill-opacity:1;fill-rule:nonzero;stroke:none" />
        </g>
        <g
           transform="translate(400.8359,423.5869)"
           id="g72">
          <path
             d="m 0,0 c 0,0.84 0.679,1.52 1.519,1.52 l 4.735,0 C 7.095,1.52 7.773,0.84 7.773,0 l 0,-4.465 c 0,-0.84 -0.678,-1.521 -1.519,-1.521 l -4.735,0 C 0.679,-5.986 0,-5.305 0,-4.465 L 0,0 z"
             id="path74"
             style="fill:#ffffff;fill-opacity:1;fill-rule:nonzero;stroke:none" />
        </g>
      </g>
    </g>
  </g>
</svg>
