<!-- Created with Inkscape (http://www.inkscape.org/) -->
<svg xmlns:rdf="http://www.w3.org/1999/02/22-rdf-syntax-ns#" xmlns="http://www.w3.org/2000/svg" height="37" width="120" version="1.1" xmlns:cc="http://creativecommons.org/ns#" xmlns:dc="http://purl.org/dc/elements/1.1/">
 <defs>
  <clipPath id="clipPath20">
   <path d="m0,842,595,0v-842h-595v842z"/>
  </clipPath>
 </defs>
 <metadata>
  <rdf:RDF>
   <cc:Work rdf:about="">
    <dc:format>image/svg+xml</dc:format>
    <dc:type rdf:resource="http://purl.org/dc/dcmitype/StillImage"/>
    <dc:title/>
   </cc:Work>
  </rdf:RDF>
 </metadata>
 <g transform="translate(0,-23)">
  <g fill-rule="nonzero" transform="scale(0.88992791,1.1236865)" font-size="4.2282877px" fill="#82cff5">
   <path d="m3.26,46.2,0,0.549c-0.17-0.1-0.36-0.2-0.56-0.3-0.19-0.1-0.4-0.1-0.63-0.1-0.44,0.000003-0.777,0.135-1.01,0.405-0.234,0.268-0.35,0.656-0.35,1.16-8.5E-7,0.507,0.117,0.895,0.35,1.16,0.234,0.268,0.57,0.402,1.01,0.402,0.223,0,0.434-0.0404,0.631-0.121,0.199-0.0808,0.387-0.203,0.562-0.366v0.544c-0.182,0.124-0.375,0.216-0.58,0.278-0.203,0.0618-0.418,0.0928-0.644,0.0928-0.582,0-1.04-0.178-1.38-0.533-0.335-0.357-0.503-0.844-0.503-1.46-3E-7-0.619,0.168-1.11,0.503-1.46,0.335-0.357,0.794-0.536,1.38-0.536,0.23,0.000003,0.447,0.0309,0.649,0.0928,0.204,0.0601,0.396,0.151,0.575,0.273"/>
   <path d="m4.05,46.9,0.474,0,0,2.89-0.474,0,0-2.89m0-1.12,0.474,0,0,0.6-0.474,0,0-0.6"/>
   <path d="m5.99,46.1,0,0.82,0.977,0,0,0.369-0.977,0,0,1.57c-0.000001,0.235,0.0318,0.387,0.0954,0.454,0.0653,0.067,0.197,0.101,0.394,0.101h0.487v0.397h-0.487c-0.366,0-0.619-0.0679-0.758-0.204-0.14-0.2-0.21-0.5-0.21-0.9v-1.57h-0.348v-0.369h0.348v-0.82h0.477"/>
   <path d="m7.59,46.9,0.474,0,0,2.89-0.474,0,0-2.89m0-1.12,0.474,0,0,0.6-0.474,0,0-0.6"/>
   <path d="m11.5,48.2,0,0.232-2.18,0c0.0206,0.326,0.119,0.576,0.294,0.747,0.177,0.17,0.423,0.255,0.737,0.255,0.182,0.000001,0.358-0.0223,0.528-0.067,0.172-0.0447,0.342-0.112,0.51-0.201v0.448c-0.17,0.0722-0.344,0.127-0.523,0.165-0.179,0.0378-0.36,0.0567-0.544,0.0567-0.46,0-0.826-0.134-1.1-0.402-0.268-0.268-0.402-0.631-0.402-1.09-3E-7-0.472,0.127-0.847,0.381-1.12,0.256-0.278,0.6-0.417,1.03-0.417,0.388,0.000003,0.695,0.125,0.92,0.376,0.227,0.249,0.34,0.588,0.34,1.02m-0.474-0.139c-0.0034-0.259-0.0765-0.466-0.219-0.621-0.141-0.155-0.328-0.232-0.562-0.232-0.265,0.000002-0.477,0.0747-0.637,0.224-0.158,0.149-0.249,0.36-0.273,0.631l1.69-0.0026"/>
   <path d="m14.1,47,0,0.448c-0.134-0.0687-0.273-0.12-0.417-0.155-0.144-0.0344-0.294-0.0515-0.448-0.0515-0.235,0.000002-0.412,0.0361-0.531,0.108-0.117,0.0722-0.175,0.18-0.175,0.325,0,0.11,0.0421,0.197,0.126,0.26,0.0842,0.0618,0.253,0.121,0.508,0.178l0.162,0.0361c0.337,0.0722,0.576,0.174,0.716,0.307,0.143,0.131,0.214,0.314,0.214,0.549-0.000002,0.268-0.107,0.48-0.32,0.637-0.211,0.156-0.503,0.235-0.874,0.235-0.155,0-0.316-0.0155-0.485-0.0464-0.167-0.0292-0.343-0.0739-0.528-0.134v-0.49c0.175,0.0911,0.348,0.16,0.518,0.206,0.17,0.0447,0.338,0.067,0.505,0.067,0.223,0,0.395-0.0378,0.515-0.113,0.12-0.0773,0.18-0.186,0.18-0.325-0.000002-0.129-0.0438-0.228-0.131-0.296-0.0859-0.0687-0.276-0.135-0.57-0.198l-0.165-0.0387c-0.294-0.0618-0.506-0.156-0.637-0.283-0.131-0.129-0.196-0.305-0.196-0.528,0-0.271,0.0962-0.481,0.289-0.629,0.192-0.148,0.466-0.222,0.82-0.222,0.175,0.000003,0.34,0.0129,0.495,0.0387s0.297,0.0644,0.428,0.116"/>
   <path d="m17.2,46.1,0,0.82,0.977,0,0,0.369-0.977,0,0,1.57c-0.000001,0.235,0.0318,0.387,0.0954,0.454,0.0653,0.067,0.197,0.101,0.394,0.101h0.487v0.397h-0.487c-0.366,0-0.619-0.0679-0.758-0.204-0.139-0.137-0.209-0.387-0.209-0.747v-1.57h-0.348v-0.369h0.348v-0.82h0.477"/>
   <path d="m21.2,48.1,0,1.74-0.474,0,0-1.73c-0.000002-0.273-0.0533-0.478-0.16-0.613-0.107-0.136-0.266-0.204-0.479-0.204-0.256,0.000002-0.458,0.0816-0.606,0.245s-0.222,0.386-0.222,0.667v1.63h-0.477v-4.01h0.477v1.57c0.113-0.174,0.247-0.303,0.399-0.389,0.155-0.0859,0.332-0.129,0.533-0.129,0.332,0.000003,0.582,0.103,0.753,0.309,0.17,0.204,0.255,0.506,0.255,0.905"/>
   <path d="m23.5,48.3c-0.383,0.000001-0.649,0.0438-0.796,0.131-0.148,0.0876-0.222,0.237-0.222,0.448-0.000001,0.168,0.055,0.302,0.165,0.402,0.112,0.0979,0.263,0.147,0.454,0.147,0.263,0,0.473-0.0928,0.631-0.278,0.16-0.187,0.24-0.436,0.24-0.745v-0.106h-0.472m0.946-0.196,0,1.65-0.474,0,0-0.438c-0.108,0.175-0.243,0.305-0.405,0.389-0.162,0.0825-0.359,0.124-0.593,0.124-0.296,0-0.531-0.0825-0.706-0.247-0.174-0.167-0.26-0.389-0.26-0.667,0-0.325,0.108-0.57,0.325-0.734,0.218-0.165,0.543-0.247,0.974-0.247h0.665v-0.0464c-0.000003-0.218-0.0722-0.387-0.216-0.505-0.143-0.12-0.344-0.18-0.603-0.18-0.165,0.000002-0.326,0.0198-0.482,0.0593s-0.307,0.0988-0.451,0.178v-0.438c0.174-0.067,0.342-0.117,0.505-0.149,0.163-0.0344,0.322-0.0515,0.477-0.0515,0.417,0.000003,0.729,0.108,0.936,0.325,0.206,0.216,0.309,0.545,0.309,0.984"/>
   <path d="m25.9,46.1,0,0.82,0.977,0,0,0.369-0.977,0,0,1.57c-0.000001,0.235,0.0318,0.387,0.0954,0.454,0.0653,0.067,0.197,0.101,0.394,0.101h0.487v0.397h-0.487c-0.366,0-0.619-0.0679-0.758-0.204-0.139-0.137-0.209-0.387-0.209-0.747v-1.57h-0.348v-0.369h0.348v-0.82h0.477"/>
   <path d="m32,46.2,0,0.549c-0.175-0.163-0.363-0.285-0.562-0.366-0.198-0.0808-0.408-0.121-0.631-0.121-0.44,0.000003-0.777,0.135-1.01,0.405-0.234,0.268-0.35,0.656-0.35,1.16-0.000001,0.507,0.117,0.895,0.35,1.16,0.234,0.268,0.57,0.402,1.01,0.402,0.223,0,0.434-0.0404,0.631-0.121,0.199-0.0808,0.387-0.203,0.562-0.366v0.544c-0.182,0.124-0.375,0.216-0.58,0.278-0.203,0.0618-0.418,0.0928-0.644,0.0928-0.582,0-1.04-0.178-1.38-0.533-0.335-0.357-0.503-0.844-0.503-1.46-0.000001-0.619,0.168-1.11,0.503-1.46,0.335-0.357,0.794-0.536,1.38-0.536,0.23,0.000003,0.447,0.0309,0.649,0.0928,0.204,0.0601,0.396,0.151,0.575,0.273"/>
   <path d="m34.1,48.3c-0.383,0.000001-0.649,0.0438-0.796,0.131-0.148,0.0876-0.222,0.237-0.222,0.448,0,0.168,0.055,0.302,0.165,0.402,0.112,0.0979,0.263,0.147,0.454,0.147,0.263,0,0.473-0.0928,0.631-0.278,0.16-0.187,0.24-0.436,0.24-0.745v-0.106h-0.472m0.946-0.196,0,1.65-0.474,0,0-0.438c-0.108,0.175-0.243,0.305-0.405,0.389-0.162,0.0825-0.359,0.124-0.593,0.124-0.296,0-0.531-0.0825-0.706-0.247-0.174-0.167-0.26-0.389-0.26-0.667,0-0.325,0.108-0.57,0.325-0.734,0.218-0.165,0.543-0.247,0.974-0.247h0.665v-0.0464c-0.000002-0.218-0.0722-0.387-0.216-0.505-0.143-0.12-0.344-0.18-0.603-0.18-0.165,0.000002-0.326,0.0198-0.482,0.0593s-0.307,0.0988-0.451,0.178v-0.438c0.174-0.067,0.342-0.117,0.505-0.149,0.163-0.0344,0.322-0.0515,0.477-0.0515,0.417,0.000003,0.729,0.108,0.936,0.325,0.206,0.216,0.309,0.545,0.309,0.984"/>
   <path d="m37.7,47.4c-0.0533-0.0309-0.112-0.0533-0.175-0.067-0.0618-0.0155-0.131-0.0232-0.206-0.0232-0.268,0.000003-0.474,0.0876-0.619,0.263-0.143,0.174-0.214,0.424-0.214,0.75v1.52h-0.477v-2.89h0.477v0.448c0.0996-0.175,0.229-0.305,0.389-0.389,0.16-0.0859,0.354-0.129,0.582-0.129,0.0326,0.000003,0.0687,0.0026,0.108,0.0077,0.0395,0.0034,0.0833,0.0095,0.131,0.018l0.0026,0.487"/>
   <path d="m40.6,48.2,0,0.232-2.18,0c0.0206,0.326,0.119,0.576,0.294,0.747,0.177,0.17,0.423,0.255,0.737,0.255,0.182,0.000001,0.358-0.0223,0.528-0.067,0.172-0.0447,0.342-0.112,0.51-0.201v0.448c-0.17,0.0722-0.344,0.127-0.523,0.165-0.179,0.0378-0.36,0.0567-0.544,0.0567-0.46,0-0.826-0.134-1.1-0.402-0.268-0.268-0.402-0.631-0.402-1.09-0.000001-0.472,0.127-0.847,0.381-1.12,0.256-0.278,0.6-0.417,1.03-0.417,0.388,0.000003,0.695,0.125,0.92,0.376,0.227,0.249,0.34,0.588,0.34,1.02m-0.474-0.139c-0.0034-0.259-0.0765-0.466-0.219-0.621-0.141-0.155-0.328-0.232-0.562-0.232-0.265,0.000002-0.477,0.0747-0.637,0.224-0.158,0.149-0.249,0.36-0.273,0.631l1.69-0.0026"/>
   <path d="m41.5,49.1,0.544,0,0,0.443-0.423,0.825-0.332,0,0.211-0.825,0-0.443"/>
   <path d="m47.6,46.2,0,0.549c-0.175-0.163-0.363-0.285-0.562-0.366-0.198-0.0808-0.408-0.121-0.631-0.121-0.44,0.000003-0.777,0.135-1.01,0.405-0.234,0.268-0.35,0.656-0.35,1.16-0.000001,0.507,0.117,0.895,0.35,1.16,0.234,0.268,0.57,0.402,1.01,0.402,0.223,0,0.434-0.0404,0.631-0.121,0.199-0.0808,0.387-0.203,0.562-0.366v0.544c-0.182,0.124-0.375,0.216-0.58,0.278-0.203,0.0618-0.418,0.0928-0.644,0.0928-0.582,0-1.04-0.178-1.38-0.533-0.335-0.357-0.503-0.844-0.503-1.46,0-0.619,0.168-1.11,0.503-1.46,0.335-0.357,0.794-0.536,1.38-0.536,0.23,0.000003,0.447,0.0309,0.649,0.0928,0.204,0.0601,0.396,0.151,0.575,0.273"/>
   <path d="m48.4,46.9,0.474,0,0,2.89-0.474,0,0-2.89m0-1.12,0.474,0,0,0.6-0.474,0,0-0.6"/>
   <path d="m50.4,46.1,0,0.82,0.977,0,0,0.369-0.977,0,0,1.57c-0.000001,0.235,0.0318,0.387,0.0954,0.454,0.0653,0.067,0.197,0.101,0.394,0.101h0.487v0.397h-0.487c-0.366,0-0.619-0.0679-0.758-0.204-0.139-0.137-0.209-0.387-0.209-0.747v-1.57h-0.348v-0.369h0.348v-0.82h0.477"/>
   <path d="m52,46.9,0.474,0,0,2.89-0.474,0,0-2.89m0-1.12,0.474,0,0,0.6-0.474,0,0-0.6"/>
   <path d="m55.9,48.2,0,0.232-2.18,0c0.0206,0.326,0.119,0.576,0.294,0.747,0.177,0.17,0.423,0.255,0.737,0.255,0.182,0.000001,0.358-0.0223,0.528-0.067,0.172-0.0447,0.342-0.112,0.51-0.201v0.448c-0.17,0.0722-0.344,0.127-0.523,0.165-0.179,0.0378-0.36,0.0567-0.544,0.0567-0.46,0-0.826-0.134-1.1-0.402-0.268-0.268-0.402-0.631-0.402-1.09,0-0.472,0.127-0.847,0.381-1.12,0.256-0.278,0.6-0.417,1.03-0.417,0.388,0.000003,0.695,0.125,0.92,0.376,0.227,0.249,0.34,0.588,0.34,1.02m-0.474-0.139c-0.0034-0.259-0.0765-0.466-0.219-0.621-0.141-0.155-0.328-0.232-0.562-0.232-0.265,0.000002-0.477,0.0747-0.637,0.224-0.158,0.149-0.249,0.36-0.273,0.631l1.69-0.0026"/>
   <path d="m58.5,47,0,0.448c-0.134-0.0687-0.273-0.12-0.417-0.155-0.144-0.0344-0.294-0.0515-0.448-0.0515-0.235,0.000002-0.412,0.0361-0.531,0.108-0.117,0.0722-0.175,0.18-0.175,0.325-0.000001,0.11,0.0421,0.197,0.126,0.26,0.0842,0.0618,0.253,0.121,0.508,0.178l0.162,0.0361c0.337,0.0722,0.576,0.174,0.716,0.307,0.143,0.131,0.214,0.314,0.214,0.549-0.000003,0.268-0.107,0.48-0.32,0.637-0.211,0.156-0.503,0.235-0.874,0.235-0.155,0-0.316-0.0155-0.485-0.0464-0.167-0.0292-0.343-0.0739-0.528-0.134v-0.49c0.175,0.0911,0.348,0.16,0.518,0.206,0.17,0.0447,0.338,0.067,0.505,0.067,0.223,0,0.395-0.0378,0.515-0.113,0.12-0.0773,0.18-0.186,0.18-0.325-0.000002-0.129-0.0438-0.228-0.131-0.296-0.0859-0.0687-0.276-0.135-0.57-0.198l-0.165-0.0387c-0.294-0.0618-0.506-0.156-0.637-0.283-0.131-0.129-0.196-0.305-0.196-0.528-0.000001-0.271,0.0962-0.481,0.289-0.629,0.192-0.148,0.466-0.222,0.82-0.222,0.175,0.000003,0.34,0.0129,0.495,0.0387s0.297,0.0644,0.428,0.116"/>
   <path d="m61.6,46.1,0,0.82,0.977,0,0,0.369-0.977,0,0,1.57c-0.000001,0.235,0.0318,0.387,0.0954,0.454,0.0653,0.067,0.197,0.101,0.394,0.101h0.487v0.397h-0.487c-0.366,0-0.619-0.0679-0.758-0.204-0.139-0.137-0.209-0.387-0.209-0.747v-1.57h-0.348v-0.369h0.348v-0.82h0.477"/>
   <path d="m65.6,48.1,0,1.74-0.474,0,0-1.73c-0.000003-0.273-0.0533-0.478-0.16-0.613-0.107-0.136-0.266-0.204-0.479-0.204-0.256,0.000002-0.458,0.0816-0.606,0.245s-0.222,0.386-0.222,0.667v1.63h-0.477v-4.01h0.477v1.57c0.113-0.174,0.247-0.303,0.399-0.389,0.155-0.0859,0.332-0.129,0.533-0.129,0.332,0.000003,0.582,0.103,0.753,0.309,0.17,0.204,0.255,0.506,0.255,0.905"/>
   <path d="m67.8,48.3c-0.383,0.000001-0.649,0.0438-0.796,0.131-0.148,0.0876-0.222,0.237-0.222,0.448,0,0.168,0.055,0.302,0.165,0.402,0.112,0.0979,0.263,0.147,0.454,0.147,0.263,0,0.473-0.0928,0.631-0.278,0.16-0.187,0.24-0.436,0.24-0.745v-0.106h-0.472m0.946-0.196,0,1.65-0.474,0,0-0.438c-0.108,0.175-0.243,0.305-0.405,0.389-0.162,0.0825-0.359,0.124-0.593,0.124-0.296,0-0.531-0.0825-0.706-0.247-0.174-0.167-0.26-0.389-0.26-0.667,0-0.325,0.108-0.57,0.325-0.734,0.218-0.165,0.543-0.247,0.974-0.247h0.665v-0.0464c-0.000002-0.218-0.0722-0.387-0.216-0.505-0.143-0.12-0.344-0.18-0.603-0.18-0.165,0.000002-0.326,0.0198-0.482,0.0593s-0.307,0.0988-0.451,0.178v-0.438c0.174-0.067,0.342-0.117,0.505-0.149,0.163-0.0344,0.322-0.0515,0.477-0.0515,0.417,0.000003,0.729,0.108,0.936,0.325,0.206,0.216,0.309,0.545,0.309,0.984"/>
   <path d="m70.2,46.1,0,0.82,0.977,0,0,0.369-0.977,0,0,1.57c-0.000001,0.235,0.0318,0.387,0.0954,0.454,0.0653,0.067,0.197,0.101,0.394,0.101h0.487v0.397h-0.487c-0.366,0-0.619-0.0679-0.758-0.204-0.139-0.137-0.209-0.387-0.209-0.747v-1.57h-0.348v-0.369h0.348v-0.82h0.477"/>
   <path d="m75.8,46.1,0,0.508c-0.198-0.0945-0.384-0.165-0.559-0.211-0.175-0.0464-0.344-0.0696-0.508-0.0696-0.283,0.000003-0.503,0.055-0.657,0.165-0.153,0.11-0.229,0.266-0.229,0.469-0.000001,0.17,0.0507,0.299,0.152,0.387,0.103,0.0859,0.297,0.155,0.582,0.209l0.314,0.0644c0.388,0.0739,0.674,0.204,0.858,0.392,0.186,0.186,0.278,0.435,0.278,0.747-0.000003,0.373-0.125,0.655-0.376,0.848-0.249,0.192-0.615,0.289-1.1,0.289-0.182,0-0.376-0.0206-0.582-0.0618-0.204-0.0412-0.417-0.102-0.637-0.183v-0.536c0.211,0.119,0.418,0.208,0.621,0.268,0.203,0.0601,0.402,0.0902,0.598,0.0902,0.297,0.000001,0.527-0.0584,0.688-0.175s0.242-0.283,0.242-0.5c-0.000002-0.189-0.0584-0.337-0.175-0.443-0.115-0.107-0.305-0.186-0.57-0.24l-0.317-0.0618c-0.388-0.0773-0.669-0.198-0.843-0.363s-0.26-0.394-0.26-0.688c-0.000001-0.34,0.119-0.608,0.358-0.804,0.241-0.196,0.571-0.294,0.992-0.294,0.18,0.000003,0.364,0.0163,0.552,0.049,0.187,0.0326,0.379,0.0816,0.575,0.147"/>
   <path d="m79.3,48.1,0,1.74-0.474,0,0-1.73c-0.000003-0.273-0.0533-0.478-0.16-0.613-0.107-0.136-0.266-0.204-0.479-0.204-0.256,0.000002-0.458,0.0816-0.606,0.245s-0.222,0.386-0.222,0.667v1.63h-0.477v-4.01h0.477v1.57c0.113-0.174,0.247-0.303,0.399-0.389,0.155-0.0859,0.332-0.129,0.533-0.129,0.332,0.000003,0.582,0.103,0.753,0.309,0.17,0.204,0.255,0.506,0.255,0.905"/>
   <path d="m81.5,48.3c-0.383,0.000001-0.649,0.0438-0.796,0.131-0.148,0.0876-0.222,0.237-0.222,0.448,0,0.168,0.055,0.302,0.165,0.402,0.112,0.0979,0.263,0.147,0.454,0.147,0.263,0,0.473-0.0928,0.631-0.278,0.16-0.187,0.24-0.436,0.24-0.745v-0.106h-0.472m0.946-0.196,0,1.65-0.474,0,0-0.438c-0.108,0.175-0.243,0.305-0.405,0.389-0.162,0.0825-0.359,0.124-0.593,0.124-0.296,0-0.531-0.0825-0.706-0.247-0.174-0.167-0.26-0.389-0.26-0.667-0.000001-0.325,0.108-0.57,0.325-0.734,0.218-0.165,0.543-0.247,0.974-0.247h0.665v-0.0464c-0.000002-0.218-0.0722-0.387-0.216-0.505-0.143-0.12-0.344-0.18-0.603-0.18-0.165,0.000002-0.326,0.0198-0.482,0.0593s-0.307,0.0988-0.451,0.178v-0.438c0.174-0.067,0.342-0.117,0.505-0.149,0.163-0.0344,0.322-0.0515,0.477-0.0515,0.417,0.000003,0.729,0.108,0.936,0.325,0.206,0.216,0.309,0.545,0.309,0.984"/>
   <path d="m85.1,47.4c-0.0533-0.0309-0.112-0.0533-0.175-0.067-0.0618-0.0155-0.131-0.0232-0.206-0.0232-0.268,0.000003-0.474,0.0876-0.619,0.263-0.143,0.174-0.214,0.424-0.214,0.75v1.52h-0.477v-2.89h0.477v0.448c0.0996-0.175,0.229-0.305,0.389-0.389,0.16-0.0859,0.354-0.129,0.582-0.129,0.0326,0.000003,0.0687,0.0026,0.108,0.0077,0.0395,0.0034,0.0833,0.0095,0.131,0.018l0.0026,0.487"/>
   <path d="m88,48.2,0,0.232-2.18,0c0.0206,0.326,0.119,0.576,0.294,0.747,0.177,0.17,0.423,0.255,0.737,0.255,0.182,0.000001,0.358-0.0223,0.528-0.067,0.172-0.0447,0.342-0.112,0.51-0.201v0.448c-0.17,0.0722-0.344,0.127-0.523,0.165-0.179,0.0378-0.36,0.0567-0.544,0.0567-0.46,0-0.826-0.134-1.1-0.402-0.268-0.268-0.402-0.631-0.402-1.09,0-0.472,0.127-0.847,0.381-1.12,0.256-0.278,0.6-0.417,1.03-0.417,0.388,0.000003,0.695,0.125,0.92,0.376,0.227,0.249,0.34,0.588,0.34,1.02m-0.474-0.139c-0.0034-0.259-0.0765-0.466-0.219-0.621-0.141-0.155-0.328-0.232-0.562-0.232-0.265,0.000002-0.477,0.0747-0.637,0.224-0.158,0.149-0.249,0.36-0.273,0.631l1.69-0.0026"/>
  </g>
  <g transform="matrix(0.39705722,0,0,-0.39593912,-59.072415,208.38042)">
   <g clip-path="url(#clipPath20)">
    <g transform="translate(161.3838,410.0928)">
     <path fill="#82cff5" d="m0,0,0.542,2.38c0.406,1.76,1.97,2.44,3.66,1.9,1.83-0.544,5.63-1.63,9.83-1.63,3.52,0,5.62,2.1,5.62,5.15,0,8.2-19.1,6.1-19.1,21.1,0,7.93,6.85,12.9,15.5,12.9,4.07,0,7.59-0.946,10.2-1.83,1.76-0.606,2.37-2.24,1.83-3.93l-0.6-2.2c-0.6-1.7-2-2.5-3.7-1.9-2.44,0.745-4.68,1.29-7.66,1.29-3.87,0-5.15-1.97-5.15-4.27,0-7.66,19.1-5.29,19.1-21.2,0-9.15-7.66-13.7-15.9-13.7-5.22,0-9.63,1.15-12.1,1.96-1.63,0.62-2.31,2.11-1.9,3.94" fill-rule="nonzero"/>
    </g>
    <g transform="translate(197.1084,447.9229)">
     <path fill="#82cff5" d="m0,0c0,1.83,1.22,3.05,3.05,3.05h3.86c1.83,0,3.06-1.22,3.06-3.05v-15.3h14.1v15.3c0,1.83,1.22,3.05,3.05,3.05h3.86c1.83,0,3.05-1.22,3.05-3.05v-39.7c0-1.83-1.22-3.05-3.05-3.05h-3.86c-1.83,0-3.05,1.22-3.05,3.05v16.1h-14.1v-16.1c0-1.83-1.22-3.05-3.05-3.05h-3.86c-1.97,0-3.19,1.2-3.19,3.1v39.7z" fill-rule="nonzero"/>
    </g>
    <g transform="translate(259.5459,424.2637)">
     <path fill="#82cff5" d="m0,0-2.37,8.68c-0.609,2.1-1.22,4.95-1.76,7.8-0.55-2.9-1.23-5.7-1.77-7.82l-2.37-8.68h8.27zm-10.8,23.8c0.54,1.76,2.1,2.92,3.93,2.92h5.43c1.83,0,3.39-1.15,3.93-2.92l11.9-39.7c0.544-1.83-0.337-3.19-2.17-3.19h-4.2c-1.83,0-3.05,0.883-3.53,2.64l-2.3,8.41h-12.7l-2.3-8.34c-0.479-1.76-1.63-2.71-3.46-2.71h-4.27c-1.83,0-2.71,1.36-2.17,3.19l11.9,39.7z" fill-rule="nonzero"/>
    </g>
    <g transform="translate(295.543,430.1631)">
     <path fill="#82cff5" d="m0,0c3.19,0,5.49,2.44,5.49,6.17,0,3.66-2.3,6.17-5.49,6.17h-5.9v-12.3h5.9zm-15.9,17.8c0,1.83,1.22,3.05,3.05,3.05h13.3c9.29,0,15-6.92,15-14.6,0-5.56-2.98-10.4-8.14-12.7l6.84-14.6c1.02-2.1-0.065-3.86-2.17-3.86h-4.41c-1.83,0-3.19,1.08-3.93,2.78l-6.24,14.3h-3.39v-14c0-1.83-1.22-3.05-3.05-3.05h-3.86c-1.83,0-3.05,1.22-3.05,3.05v39.7z" fill-rule="nonzero"/>
    </g>
    <g transform="translate(317.0312,447.9229)">
     <path fill="#82cff5" d="m0,0c0,1.83,1.22,3.05,3.05,3.05h21.3c1.8,0,3-1.22,3-3.05v-2.37c0-1.83-1.22-3.05-3.05-3.05h-14.4v-10.2h11.6c1.83,0,2.98-0.883,2.92-2.78l-0.135-2.65c-0.067-1.83-1.36-2.71-3.19-2.71h-11.2v-10.6h15c1.83,0,3.05-1.22,3.05-3.05v-2.37c0-1.83-1.22-3.05-3.05-3.05h-21.9c-1.83,0-3.05,1.22-3.05,3.05l-0.05,39.8z" fill-rule="nonzero"/>
    </g>
    <g transform="translate(431.4902,441.7959)">
     <path fill="#d72156" d="m0,0c0.527-0.416,0.862-1.06,0.862-1.78,0-1.26-1.02-2.28-2.28-2.28h-14.1v-5.27h10.2c1.26,0,2.28-1.02,2.28-2.28v-25.5l19.3,22.4c3.26,3.26,3.26,8.56,0,11.8l-23.1,26.8c-0.656,0.656-1.64,0.849-2.49,0.495-0.848-0.352-1.41-1.18-1.41-2.11v-12.9h-0.078l10.6-9.13c0.09-0.139,0.147-0.202,0.2-0.27" fill-rule="nonzero"/>
    </g>
    <g transform="translate(359.9102,405.7178)">
     <path fill="#fcea24" d="m0,0,23-26.8c0.652-0.65,1.63-0.846,2.48-0.492s1.41,1.18,1.41,2.1v12.7l-8.71,7.49c-0.062,0.063-0.12,0.131-0.173,0.197-0.525,0.416-0.862,1.06-0.862,1.78,0,1.26,1.02,2.28,2.28,2.28h14.1v5.27h-10.2c-1.26,0-2.28,1.02-2.28,2.28v25.6h-3.4l-17.6-20.6c-3.26-3.24-3.26-8.54,0-11.8" fill-rule="nonzero"/>
    </g>
    <g transform="translate(377.9502,400.9131)">
     <path fill="#f39415" d="m0,0c0.053-0.066,0.111-0.135,0.173-0.197l8.71-7.49,18.1-15.5c3.26-3.26,8.57-3.26,11.8,0l26.8,23c0.652,0.654,0.849,1.63,0.494,2.48-0.35,0.852-1.18,1.41-2.11,1.41h-13.5v0.05,25.5c0,1.26-1.02,2.28-2.28,2.28h-10.2v-17.4-2.56c0-0.892-0.518-1.66-1.27-2.03-0.308-0.15-0.65-0.246-1.02-0.246h-20.2v-5.27h-14.1c-1.24,0.11-2.26-0.91-2.26-2.17,0-0.72,0.337-1.36,0.862-1.78" fill-rule="nonzero"/>
    </g>
    <g transform="translate(383.1387,444.5029)">
     <path fill="#82cff5" d="m0,0c0.419,0.527,1.06,0.863,1.79,0.863,1.26,0,2.28-1.02,2.28-2.28v-14.1h6.28v1.22,0.003,18.7c0,1.26,1.02,2.28,2.28,2.28h24.9l-16.2,13.9c-3.26,3.26-8.56,3.26-11.8,0l-26.8-23.1c-0.656-0.649-0.848-1.63-0.496-2.48,0.354-0.854,1.18-1.41,2.11-1.41h10.1l5.36,6.23c0.005,0.061,0.075,0.119,0.14,0.17" fill-rule="nonzero"/>
    </g>
    <g transform="translate(393.4902,448.8408)">
     <path fill="#a42960" d="m0,0,0-18.7c0,1.26,1.02,2.28,2.28,2.28h20.2v5.27h14.1c1.26,0,2.28,1.02,2.28,2.28,0,0.723-0.335,1.37-0.862,1.78-0.053,0.068-0.11,0.131-0.173,0.193l-10.6,9.13h-24.9c-1.28,0-2.3-1.02-2.3-2.28" fill-rule="nonzero"/>
    </g>
    <g transform="translate(380.9854,412.5283)">
     <path fill="#96c22c" d="m0,0c0-1.26,1.02-2.28,2.28-2.28h10.2v18.7h-6.28v14.1c0,1.26-1.02,2.28-2.28,2.28-0.722,0-1.37-0.336-1.79-0.863-0.06,0-0.13,0-0.19-0.1l-5.36-6.2h3.4v-25.6z" fill-rule="nonzero"/>
    </g>
    <g transform="translate(413.6719,410.249)">
     <path fill="#7a7335" d="m0,0c0.366,0,0.708,0.096,1.02,0.246,0.748,0.375,1.26,1.14,1.26,2.03v2.56,17.4h-20.2c-1.26,0-2.28-1.02-2.28-2.28v-1.22-18.7h20.2z" fill-rule="nonzero"/>
    </g>
    <g transform="translate(400.8359,423.5869)">
     <path fill="#FFF" d="m0,0c0,0.84,0.679,1.52,1.52,1.52h4.74c0.84,0,1.51-0.68,1.51-1.52v-4.46c0-0.84-0.678-1.52-1.52-1.52h-4.74c-0.831-0.01-1.51,0.68-1.51,1.52v4.46z" fill-rule="nonzero"/>
    </g>
   </g>
  </g>
 </g>
</svg>
